<?xml version="1.0" encoding="utf-8"?>
<!-- Generator: Adobe Illustrator 18.1.1, SVG Export Plug-In . SVG Version: 6.00 Build 0)  -->
<svg version="1.1" id="Layer_1" xmlns="http://www.w3.org/2000/svg" xmlns:xlink="http://www.w3.org/1999/xlink" x="0px" y="0px"
	 viewBox="0 0 1149.332 107.667" enable-background="new 0 0 1149.332 107.667" xml:space="preserve">
<rect x="0.756" y="0.355" width="1149.333" height="107.667"/>
<rect x="9.248" y="8.453" fill="#FFFFFF" width="365.673" height="91.559"/>
<rect x="775.922" y="8.743" fill="#FFFFFF" width="366.032" height="91.23"/>
<polygon points="76.401,74.266 65.343,74.266 65.343,58.624 48.666,58.624 48.666,74.266 37.583,74.266 37.583,34.19 48.666,34.19 
	48.666,48.906 65.343,48.906 65.343,34.19 76.401,34.19 "/>
<path d="M126.884,56.309c0,3.433-0.588,6.356-1.763,8.776c-1.177,2.418-2.73,4.332-4.667,5.736
	c-1.937,1.408-4.021,2.422-6.258,3.037c-2.235,0.617-4.467,0.928-6.693,0.928c-3.11,0-6.138-0.58-9.081-1.736
	c-2.941-1.155-5.404-3.123-7.384-5.897c-1.98-2.774-2.971-6.391-2.971-10.844V34.19h11.057v18.997c0,2.643,0.35,4.824,1.048,6.548
	c0.698,1.728,1.67,2.988,2.916,3.789c1.246,0.802,2.719,1.199,4.415,1.199c1.626,0,3.065-0.396,4.321-1.185
	c1.255-0.791,2.229-2.045,2.93-3.762c0.698-1.715,1.047-3.893,1.047-6.534V34.19h11.083V56.309L126.884,56.309z"/>
<path d="M174.134,74.266h-11.902l-2.892-7.113c-1.061-2.603-2.015-4.506-2.863-5.711c-0.848-1.205-1.675-1.978-2.479-2.313
	c-0.805-0.338-1.843-0.506-3.115-0.506h-1.246v15.644h-11.083V34.19h18.853c3.041,0,5.533,0.674,7.478,2.024
	c1.944,1.349,3.346,2.988,4.202,4.915c0.857,1.928,1.286,3.759,1.286,5.494c0,2.023-0.358,3.734-1.073,5.133
	c-0.716,1.396-1.472,2.415-2.268,3.049c-0.796,0.637-1.688,1.243-2.679,1.821c1.186,0.752,2.16,1.644,2.932,2.676
	c0.768,1.031,1.813,3.117,3.141,6.261L174.134,74.266L174.134,74.266z"/>
<path fill="#FFFFFF" d="M159.076,46.854c0,1.832-0.5,3.07-1.498,3.716c-0.999,0.646-2.852,0.97-5.556,0.97h-2.388v-9.658h2.333
	c2.512,0,4.322,0.366,5.436,1.099C158.519,43.712,159.076,45.004,159.076,46.854L159.076,46.854z"/>
<polygon points="208.475,58.046 193.231,58.046 193.231,74.266 182.148,74.266 182.148,34.19 208.475,34.19 208.475,42.228 
	193.231,42.228 193.231,49.977 208.475,49.977 "/>
<path d="M258.22,54.199c0,3.739-0.791,7.179-2.372,10.323c-1.581,3.143-3.938,5.64-7.063,7.487
	c-3.13,1.851-6.938,2.777-11.429,2.777c-4.542,0-8.389-0.967-11.532-2.895c-3.146-1.926-5.484-4.461-7.015-7.604
	c-1.527-3.144-2.293-6.508-2.293-10.091c0-3.604,0.761-6.974,2.279-10.106c1.52-3.132,3.857-5.658,7.014-7.576
	c3.154-1.918,7.005-2.877,11.547-2.877c3.395,0,6.421,0.55,9.08,1.648c2.659,1.098,4.85,2.588,6.563,4.468
	c1.715,1.879,3.014,4.066,3.897,6.563C257.781,48.816,258.22,51.442,258.22,54.199L258.22,54.199z"/>
<path fill="#FFFFFF" d="M246.926,54.199c0,2.003-0.371,3.782-1.112,5.333c-0.742,1.553-1.829,2.768-3.263,3.644
	c-1.432,0.878-3.164,1.315-5.195,1.315c-2.951,0-5.279-0.949-6.985-2.848c-1.706-1.898-2.56-4.381-2.56-7.446
	c0-3.064,0.85-5.542,2.546-7.432c1.695-1.889,4.028-2.834,6.999-2.834c1.557,0,2.926,0.255,4.108,0.766
	c1.186,0.512,2.188,1.225,3.01,2.141c0.822,0.916,1.438,1.995,1.844,3.239C246.723,51.322,246.926,52.695,246.926,54.199
	L246.926,54.199z"/>
<path d="M303.668,74.266h-11.903l-2.891-7.113c-1.061-2.603-2.016-4.506-2.864-5.711c-0.848-1.205-1.675-1.978-2.48-2.313
	c-0.805-0.338-1.843-0.506-3.114-0.506h-1.246v15.644h-11.083V34.19h18.853c3.039,0,5.532,0.674,7.478,2.024
	c1.942,1.349,3.346,2.988,4.201,4.915c0.858,1.928,1.285,3.759,1.285,5.494c0,2.023-0.356,3.734-1.073,5.133
	c-0.715,1.396-1.472,2.415-2.267,3.049c-0.796,0.637-1.688,1.243-2.678,1.821c1.184,0.752,2.16,1.644,2.929,2.676
	c0.771,1.031,1.816,3.117,3.143,6.261L303.668,74.266L303.668,74.266z"/>
<path fill="#FFFFFF" d="M288.61,46.854c0,1.832-0.499,3.07-1.498,3.716c-0.998,0.646-2.852,0.97-5.555,0.97h-2.387v-9.658h2.333
	c2.511,0,4.322,0.366,5.436,1.099C288.052,43.712,288.61,45.004,288.61,46.854L288.61,46.854z"/>
<path d="M349.462,54.953c0,4.104-0.686,7.399-2.056,9.889c-1.37,2.486-2.981,4.502-4.84,6.043
	c-2.633,2.256-6.318,3.383-11.056,3.383H311.68V34.19h15.271c2.298,0,4.266,0.13,5.898,0.391c1.635,0.26,3.105,0.626,4.415,1.099
	c1.309,0.472,2.421,1.002,3.34,1.59c0.92,0.588,1.742,1.219,2.467,1.895c1.255,1.117,2.354,2.438,3.301,3.961
	c0.945,1.522,1.696,3.287,2.255,5.292C349.185,50.421,349.462,52.599,349.462,54.953L349.462,54.953z"/>
<path fill="#FFFFFF" d="M338.196,54.43c0,4.687-1.06,7.778-3.182,9.28c-2.121,1.504-4.631,2.256-7.53,2.256h-4.719V42.227h4.719
	c1.662,0,3.292,0.309,4.893,0.925c1.601,0.617,2.971,1.836,4.108,3.658C337.623,48.632,338.196,51.172,338.196,54.43L338.196,54.43z
	"/>
<path fill="#FFFFFF" d="M517.317,62.643c0,2.506-0.588,4.674-1.763,6.506c-1.177,1.832-2.815,3.233-4.919,4.207
	c-2.104,0.975-4.518,1.461-7.238,1.461c-0.76,0-1.691-0.053-2.797-0.157c-1.104-0.105-2.572-0.4-4.4-0.884
	c-1.83-0.481-3.732-1.194-5.715-2.142v-9.829c1.856,1.252,3.683,2.293,5.477,3.122c1.795,0.828,3.717,1.242,5.768,1.242
	c1.892,0,3.115-0.342,3.672-1.024c0.559-0.687,0.835-1.326,0.835-1.924c0-1.08-0.477-1.99-1.432-2.732
	c-0.954-0.742-2.343-1.509-4.162-2.3c-2.016-0.926-3.783-1.933-5.303-3.021c-1.521-1.087-2.764-2.453-3.728-4.09
	c-0.963-1.639-1.443-3.575-1.443-5.813c0-2.159,0.484-4.11,1.458-5.854c0.973-1.744,2.457-3.138,4.453-4.179
	c1.998-1.041,4.439-1.562,7.317-1.562c2.051,0,3.946,0.217,5.688,0.65c1.74,0.435,3.178,0.92,4.31,1.46
	c1.131,0.54,1.909,0.965,2.333,1.273v9.397c-1.503-1.177-3.177-2.227-5.023-3.152c-1.849-0.925-3.821-1.388-5.927-1.388
	c-1.379,0-2.378,0.289-2.996,0.867c-0.618,0.578-0.928,1.291-0.928,2.141c0,0.79,0.31,1.474,0.928,2.052
	c0.618,0.579,1.726,1.282,3.314,2.111c2.828,1.445,5.091,2.747,6.787,3.903c1.695,1.157,3.025,2.491,3.989,4.005
	C516.834,58.505,517.317,60.387,517.317,62.643L517.317,62.643z"/>
<polygon fill="#FFFFFF" points="568.177,74.298 556.827,74.298 553.831,66.171 537.87,66.171 534.823,74.298 523.475,74.298 
	539.728,34.22 551.977,34.22 "/>
<polygon points="551.285,59.205 540.47,59.205 545.905,44.572 "/>
<polygon fill="#FFFFFF" points="603.947,74.298 576.027,74.298 576.027,34.22 587.111,34.22 587.111,64.696 603.947,64.696 "/>
<polygon fill="#FFFFFF" points="643.885,34.22 627.314,74.817 619.995,74.817 603.743,34.22 615.277,34.22 623.681,57.352 
	632.325,34.22 "/>
<rect x="651.95" y="34.22" fill="#FFFFFF" width="11.082" height="40.079"/>
<path d="M912.029,71.274c-1.52,0.865-3.074,1.562-4.666,2.08c-1.592,0.52-3.192,0.894-4.811,1.112
	c-1.617,0.224-3.293,0.332-5.025,0.332c-3.197,0-6.064-0.479-8.604-1.444c-2.535-0.963-4.736-2.386-6.604-4.267
	c-1.863-1.879-3.262-4.075-4.188-6.592c-0.931-2.518-1.396-5.277-1.396-8.285c0-3.45,0.549-6.473,1.646-9.064
	c1.096-2.592,2.629-4.746,4.6-6.462c1.971-1.716,4.217-2.982,6.734-3.803c2.518-0.819,5.174-1.229,7.967-1.229
	c4.172,0,8.899,1.013,14.185,3.036v10.642c-1.817-1.234-3.619-2.262-5.395-3.08c-1.775-0.819-3.867-1.229-6.271-1.229
	c-2.141,0-4.137,0.463-5.992,1.389c-1.854,0.925-3.352,2.245-4.479,3.962c-1.131,1.715-1.695,3.72-1.695,6.014
	c0,2.022,0.494,3.879,1.484,5.563c0.99,1.688,2.363,3.027,4.123,4.021c1.758,0.993,3.742,1.489,5.951,1.489
	c1.784,0,3.473-0.235,5.063-0.709c1.592-0.473,2.932-0.996,4.021-1.576c1.086-0.577,2.205-1.262,3.354-2.053v10.15L912.029,71.274
	L912.029,71.274z"/>
<polygon points="962.808,74.298 951.461,74.298 948.465,66.173 932.504,66.173 929.452,74.298 918.105,74.298 934.359,34.221 
	946.607,34.221 "/>
<polygon fill="#FFFFFF" points="945.92,59.205 935.101,59.205 940.536,44.573 "/>
<g>
	<path d="M1006.241,74.266h-11.903l-2.892-7.113c-1.061-2.603-2.016-4.506-2.862-5.711c-0.851-1.205-1.677-1.978-2.48-2.313
		c-0.803-0.338-1.842-0.506-3.113-0.506h-1.245v15.644h-11.084V34.189h18.854c3.039,0,5.531,0.675,7.477,2.024
		c1.943,1.349,3.349,2.988,4.201,4.916c0.857,1.927,1.287,3.759,1.287,5.494c0,2.023-0.356,3.733-1.074,5.132
		c-0.717,1.397-1.471,2.415-2.268,3.052c-0.795,0.635-1.688,1.241-2.676,1.819c1.184,0.752,2.158,1.646,2.928,2.676
		c0.769,1.029,1.814,3.117,3.143,6.261L1006.241,74.266L1006.241,74.266z"/>
	<path fill="#FFFFFF" d="M991.181,46.855c0,1.831-0.5,3.07-1.498,3.716c-0.998,0.646-2.853,0.969-5.555,0.969h-2.388v-9.658h2.332
		c2.513,0,4.32,0.367,5.438,1.099C990.625,43.712,991.181,45.003,991.181,46.855L991.181,46.855z"/>
	<path d="M1049.834,74.266h-11.902l-2.893-7.113c-1.062-2.603-2.017-4.506-2.861-5.711c-0.85-1.205-1.676-1.978-2.48-2.313
		c-0.803-0.338-1.842-0.506-3.112-0.506h-1.246v15.644h-11.082V34.189h18.85c3.041,0,5.533,0.675,7.479,2.024
		c1.942,1.349,3.346,2.988,4.201,4.916c0.856,1.927,1.285,3.759,1.285,5.494c0,2.023-0.355,3.733-1.072,5.132
		c-0.717,1.397-1.474,2.415-2.269,3.052c-0.795,0.635-1.688,1.241-2.678,1.819c1.185,0.752,2.162,1.646,2.931,2.676
		c0.771,1.029,1.815,3.117,3.145,6.261L1049.834,74.266L1049.834,74.266z"/>
	<path fill="#FFFFFF" d="M1034.775,46.855c0,1.831-0.5,3.07-1.498,3.716c-1,0.646-2.852,0.969-5.555,0.969h-2.388v-9.658h2.332
		c2.513,0,4.322,0.367,5.437,1.099C1034.219,43.712,1034.775,45.003,1034.775,46.855L1034.775,46.855z"/>
</g>
</svg>
